<?xml version="1.0" standalone="no"?>
<!DOCTYPE svg PUBLIC "-//W3C//DTD SVG 20010904//EN"
 "http://www.w3.org/TR/2001/REC-SVG-20010904/DTD/svg10.dtd">
<svg version="1.0" xmlns="http://www.w3.org/2000/svg"
 width="700.000000pt" height="700.000000pt" viewBox="0 0 700.000000 700.000000"
 preserveAspectRatio="xMidYMid meet">
<metadata>
Created by potrace 1.11, written by Peter Selinger 2001-2013
</metadata>
<g transform="translate(0.000000,700.000000) scale(0.100000,-0.100000)"
fill="#000000" stroke="none">
<path d="M3383 6918 c-50 -46 -122 -117 -159 -159 l-67 -77 -96 -12 c-979
-123 -1870 -697 -2403 -1548 -266 -425 -428 -893 -490 -1417 -17 -143 -17
-567 0 -710 77 -650 301 -1200 698 -1715 114 -147 416 -450 564 -564 539 -417
1128 -648 1805 -707 314 -27 732 6 1055 84 883 215 1658 795 2110 1582 393
683 532 1468 400 2249 -94 546 -334 1078 -687 1521 -101 127 -348 379 -475
484 l-87 72 -41 -21 c-57 -29 -123 -98 -155 -159 -14 -28 -27 -51 -30 -51 -3
0 -22 35 -44 78 -22 42 -51 92 -65 111 -33 44 -105 96 -184 132 -35 16 -61 33
-58 38 3 5 30 23 59 39 28 16 67 46 86 65 l34 36 -174 85 c-339 165 -686 271
-1043 317 l-89 11 -156 159 c-133 135 -161 159 -187 159 -23 0 -49 -18 -121
-82z m-281 -1289 c4 -173 -31 -159 399 -159 426 0 389 -15 389 160 l0 120 224
0 225 0 25 -82 c116 -385 171 -699 197 -1134 23 -404 -28 -919 -132 -1326 -51
-200 -115 -389 -137 -406 -25 -19 -1575 -18 -1591 2 -16 19 -85 222 -120 356
-190 714 -197 1508 -21 2235 21 88 52 204 70 258 l31 97 219 0 218 0 4 -121z
m-1529 -414 c60 -113 99 -153 212 -212 123 -66 124 -78 9 -134 -113 -55 -171
-113 -223 -224 -35 -73 -44 -85 -65 -85 -21 0 -31 13 -66 84 -53 108 -107 162
-221 221 -118 61 -118 72 5 137 113 60 155 101 207 202 23 45 46 87 52 94 20
26 43 5 90 -83z m4115 -390 c54 -102 88 -135 183 -185 43 -22 81 -45 84 -49
12 -20 -9 -39 -77 -72 -94 -45 -147 -99 -192 -192 -52 -110 -69 -110 -120 -3
-44 92 -99 146 -192 192 -110 55 -109 69 10 128 86 42 141 99 183 185 50 106
62 106 121 -4z m-1637 -2701 c112 -291 115 -297 149 -311 75 -30 177 -84 223
-118 l47 -35 -31 -53 c-69 -118 -119 -242 -143 -358 l-13 -63 -139 -1 c-236
-3 -423 -66 -588 -200 l-56 -46 -62 51 c-78 64 -238 143 -343 172 -64 17 -110
21 -232 22 l-151 1 -7 45 c-10 71 -62 216 -110 309 l-44 84 19 27 c38 53 201
159 245 160 6 0 63 137 129 305 l119 305 436 0 437 0 115 -296z"/>
<path d="M3380 5214 c-224 -43 -409 -186 -506 -389 -49 -103 -67 -184 -67
-300 0 -195 63 -345 203 -486 71 -72 101 -93 180 -132 209 -102 411 -102 620
0 79 39 109 60 180 132 140 141 203 292 203 486 0 307 -188 566 -483 665 -49
17 -95 23 -185 25 -66 2 -131 1 -145 -1z m312 -286 c278 -138 339 -502 120
-717 -186 -182 -473 -173 -646 20 -212 236 -113 612 190 719 48 17 78 20 160
18 93 -3 106 -6 176 -40z"/>
</g>
</svg>
